<svg width="1080" height="1080" viewBox="0 0 1080 1080" fill="none" xmlns="http://www.w3.org/2000/svg">
<path d="M543.163 281C611.376 281 664.242 292.206 701.759 314.619C739.276 337.032 758.035 371.87 758.035 419.132C758.035 443.981 751.7 466.394 739.032 486.37C726.364 506.347 705.657 522.182 676.91 533.876C710.042 545.082 733.673 560.186 747.803 579.188C761.933 598.191 768.997 621.335 768.997 648.62C768.997 698.805 749.751 736.566 711.26 761.902C673.255 787.239 619.416 799.906 549.741 799.906H311V281H543.163ZM486.266 569.109L491.463 630.112L433.085 605.33L416.69 652.988L479.067 666.715L437.483 711.704L480.268 742.206L513.056 689.972L545.443 742.206L588.229 711.704L546.644 666.715L609.021 652.988L591.827 605.33L533.448 630.112L538.646 569.109H486.266ZM491.463 399.315L433.085 374.532L416.69 422.191L479.067 435.917L437.483 480.907L480.268 511.409L513.056 459.175L545.443 511.409L588.229 480.907L546.644 435.917L609.021 422.191L591.827 374.532L533.448 399.315L538.646 338.312H486.266L491.463 399.315Z" fill="#4D61F4"/>
</svg>
